<svg width="176" height="53" viewBox="0 0 176 53" fill="none" xmlns="http://www.w3.org/2000/svg">
<rect x="0.5" y="0.580566" width="175" height="51" rx="6.5" fill="#0C0D10"/>
<rect x="0.5" y="0.580566" width="175" height="51" rx="6.5" stroke="#A6A6A6"/>
<path d="M116.02 25.042V28.0203H114.153V29.9735H116.02V36.61C116.02 38.8761 117.045 39.7826 119.624 39.7826C120.077 39.7826 120.509 39.7286 120.887 39.6639V37.7323C120.563 37.7646 120.358 37.7862 120.002 37.7862C118.847 37.7862 118.34 37.2467 118.34 36.0165V29.9735H120.887V28.0203H118.34V25.042H116.02Z" fill="white"/>
<path d="M127.457 39.9444C130.888 39.9444 132.992 37.6459 132.992 33.8367C132.992 30.0491 130.877 27.7398 127.457 27.7398C124.025 27.7398 121.91 30.0491 121.91 33.8367C121.91 37.6459 124.014 39.9444 127.457 39.9444ZM127.457 37.8833C125.439 37.8833 124.306 36.405 124.306 33.8367C124.306 31.29 125.439 29.8009 127.457 29.8009C129.464 29.8009 130.608 31.29 130.608 33.8367C130.608 36.3942 129.464 37.8833 127.457 37.8833Z" fill="white"/>
<path d="M134.793 39.7178H137.113V32.7792C137.113 31.1282 138.354 30.0167 140.113 30.0167C140.523 30.0167 141.213 30.0922 141.408 30.157V27.8693C141.159 27.8045 140.717 27.7722 140.372 27.7722C138.839 27.7722 137.534 28.6139 137.199 29.7685H137.026V27.9664H134.793V39.7178Z" fill="white"/>
<path d="M147.168 29.7145C148.884 29.7145 150.006 30.9123 150.06 32.7576H144.125C144.255 30.9231 145.453 29.7145 147.168 29.7145ZM150.049 36.5452C149.618 37.4625 148.657 37.9697 147.255 37.9697C145.399 37.9697 144.201 36.6639 144.125 34.6029V34.4734H152.424V33.664C152.424 29.9735 150.449 27.7398 147.179 27.7398C143.866 27.7398 141.762 30.1246 141.762 33.8799C141.762 37.6351 143.823 39.9444 147.19 39.9444C149.877 39.9444 151.754 38.6495 152.283 36.5452H150.049Z" fill="white"/>
<path d="M100.805 35.3782C100.984 38.2638 103.389 40.1093 106.968 40.1093C110.793 40.1093 113.186 38.1743 113.186 35.0874C113.186 32.6603 111.822 31.3182 108.511 30.5465L106.733 30.1103C104.63 29.6181 103.78 28.9582 103.78 27.8062C103.78 26.3522 105.1 25.4016 107.08 25.4016C108.959 25.4016 110.256 26.3299 110.491 27.8174H112.929C112.784 25.0996 110.39 23.187 107.113 23.187C103.59 23.187 101.241 25.0996 101.241 27.974C101.241 30.3451 102.572 31.7544 105.491 32.4367L107.572 32.94C109.708 33.4433 110.648 34.1814 110.648 35.4117C110.648 36.8434 109.171 37.8835 107.158 37.8835C104.999 37.8835 103.501 36.9105 103.288 35.3782H100.805Z" fill="white"/>
<path d="M76.7716 27.7722C75.1746 27.7722 73.7933 28.5707 73.0811 29.9088H72.9084V27.9664H70.6747V43.6242H72.9948V37.9373H73.1782C73.7933 39.1783 75.1206 39.912 76.7932 39.912C79.7607 39.912 81.6492 37.5704 81.6492 33.8367C81.6492 30.103 79.7607 27.7722 76.7716 27.7722ZM76.1134 37.8294C74.171 37.8294 72.9516 36.2971 72.9516 33.8475C72.9516 31.3871 74.171 29.8548 76.1242 29.8548C78.0881 29.8548 79.2643 31.3548 79.2643 33.8367C79.2643 36.3294 78.0881 37.8294 76.1134 37.8294Z" fill="white"/>
<path d="M89.7675 27.7722C88.1704 27.7722 86.7891 28.5707 86.0769 29.9088H85.9043V27.9664H83.6705V43.6242H85.9906V37.9373H86.174C86.7891 39.1783 88.1164 39.912 89.789 39.912C92.7566 39.912 94.645 37.5704 94.645 33.8367C94.645 30.103 92.7566 27.7722 89.7675 27.7722ZM89.1092 37.8294C87.1668 37.8294 85.9474 36.2971 85.9474 33.8475C85.9474 31.3871 87.1668 29.8548 89.12 29.8548C91.084 29.8548 92.2602 31.3548 92.2602 33.8367C92.2602 36.3294 91.084 37.8294 89.1092 37.8294Z" fill="white"/>
<path d="M66.5121 39.7178H69.174L63.3469 23.5785H60.6514L54.8242 39.7178H57.3967L58.8842 35.4341H65.0357L66.5121 39.7178ZM61.8705 26.5088H62.0606L64.3982 33.3314H59.5217L61.8705 26.5088Z" fill="white"/>
<path d="M61.9796 13.2617H60.6515C60.6136 13.0439 60.5437 12.8509 60.4419 12.6828C60.3401 12.5124 60.2135 12.368 60.062 12.2496C59.9105 12.1312 59.7376 12.0425 59.5435 11.9833C59.3517 11.9217 59.1446 11.8909 58.9221 11.8909C58.5267 11.8909 58.1763 11.9904 57.8709 12.1892C57.5655 12.3857 57.3264 12.6746 57.1536 13.0557C56.9808 13.4345 56.8944 13.8973 56.8944 14.4442C56.8944 15.0005 56.9808 15.4693 57.1536 15.8505C57.3288 16.2292 57.5679 16.5157 57.8709 16.7098C58.1763 16.9016 58.5255 16.9975 58.9185 16.9975C59.1363 16.9975 59.3399 16.9691 59.5293 16.9122C59.7211 16.8531 59.8927 16.7666 60.0442 16.653C60.1981 16.5394 60.3271 16.3997 60.4313 16.234C60.5378 16.0683 60.6112 15.8789 60.6515 15.6658L61.9796 15.6729C61.9299 16.0185 61.8221 16.3429 61.6564 16.6459C61.4931 16.9489 61.2788 17.2165 61.0137 17.4485C60.7485 17.6781 60.4384 17.858 60.0833 17.9882C59.7282 18.1161 59.334 18.18 58.9007 18.18C58.2615 18.18 57.691 18.032 57.1891 17.7361C56.6872 17.4402 56.2918 17.0129 56.003 16.4541C55.7142 15.8954 55.5698 15.2255 55.5698 14.4442C55.5698 13.6606 55.7154 12.9906 56.0066 12.4343C56.2978 11.8755 56.6943 11.4482 57.1962 11.1523C57.6981 10.8564 58.2663 10.7084 58.9007 10.7084C59.3056 10.7084 59.682 10.7652 60.03 10.8789C60.378 10.9925 60.6882 11.1594 60.9604 11.3796C61.2327 11.5974 61.4564 11.8649 61.6316 12.1821C61.8091 12.497 61.9251 12.8568 61.9796 13.2617ZM67.6933 18.0806L65.2999 14.9023H64.6536V18.0806H63.3361V10.8078H64.6536V13.7979H64.9838L67.569 10.8078H69.1919L66.319 14.1246L69.3162 18.0806H67.6933ZM71.295 18.0806H69.8888L72.4491 10.8078H74.0756L76.6395 18.0806H75.2332L73.2908 12.2993H73.2339L71.295 18.0806ZM71.3412 15.229H75.1764V16.2872H71.3412V15.229ZM77.964 10.8078H79.2531V13.18C79.2531 13.4878 79.3064 13.7316 79.4129 13.9115C79.5218 14.0915 79.6828 14.2205 79.8958 14.2986C80.1089 14.3767 80.3741 14.4158 80.6913 14.4158C80.8333 14.4158 80.986 14.4111 81.1494 14.4016C81.3151 14.3898 81.482 14.3744 81.6501 14.3554C81.8182 14.3341 81.9792 14.3093 82.1331 14.2809C82.2869 14.2501 82.4243 14.2169 82.545 14.1814V15.2539C82.4243 15.2917 82.2893 15.3261 82.1402 15.3568C81.991 15.3876 81.8336 15.4137 81.6679 15.435C81.5021 15.4563 81.3364 15.4728 81.1707 15.4847C81.005 15.4965 80.8452 15.5024 80.6913 15.5024C80.135 15.5024 79.652 15.4231 79.2424 15.2645C78.8352 15.1035 78.5204 14.8526 78.2978 14.5117C78.0753 14.1708 77.964 13.7269 77.964 13.18V10.8078ZM82.3284 10.8078H83.6245V18.0806H82.3284V10.8078ZM86.3118 18.0806H84.9056L87.4659 10.8078H89.0924L91.6563 18.0806H90.25L88.3076 12.2993H88.2507L86.3118 18.0806ZM86.358 15.229H90.1932V16.2872H86.358V15.229ZM92.7642 10.8078H94.071V15.7652H94.1385L97.5582 10.8078H98.7408V18.0806H97.4233V13.1267H97.3629L93.9325 18.0806H92.7642V10.8078ZM96.4574 8.93284H97.4197C97.4197 9.34714 97.2694 9.68331 96.9688 9.94136C96.6705 10.197 96.2656 10.3249 95.7543 10.3249C95.2476 10.3249 94.844 10.197 94.5433 9.94136C94.245 9.68331 94.0971 9.34714 94.0994 8.93284H95.0547C95.0547 9.10329 95.1068 9.25599 95.2109 9.39094C95.3175 9.52351 95.4986 9.5898 95.7543 9.5898C96.0052 9.5898 96.1839 9.52351 96.2905 9.39094C96.3994 9.25836 96.455 9.10566 96.4574 8.93284ZM100.007 11.9122V10.8078H105.809V11.9122H103.561V18.0806H102.255V11.9122H100.007ZM107.078 18.0806V10.8078H111.808V11.9122H108.395V13.8867H111.563V14.9911H108.395V16.9762H111.836V18.0806H107.078Z" fill="white"/>
<path d="M39.2365 26.4719C39.2647 24.2866 40.4383 22.2189 42.3 21.0743C41.1255 19.3969 39.1583 18.3333 37.1115 18.2693C34.9285 18.0401 32.8122 19.5756 31.6998 19.5756C30.5658 19.5756 28.8531 18.292 27.0087 18.33C24.6047 18.4077 22.3635 19.7744 21.1939 21.8762C18.6797 26.2292 20.5551 32.6265 22.9635 36.1451C24.1684 37.8681 25.5767 39.7927 27.4194 39.7244C29.2226 39.6496 29.896 38.5746 32.0726 38.5746C34.229 38.5746 34.8608 39.7244 36.7409 39.681C38.6758 39.6496 39.8949 37.9504 41.0576 36.2111C41.9233 34.9835 42.5895 33.6266 43.0315 32.1909C40.7577 31.2291 39.2392 28.9408 39.2365 26.4719Z" fill="white"/>
<path d="M35.6853 15.9553C36.7403 14.6888 37.2601 13.061 37.1342 11.4175C35.5224 11.5868 34.0336 12.3571 32.9644 13.575C31.9188 14.7649 31.3747 16.3641 31.4775 17.9448C33.0899 17.9614 34.675 17.2119 35.6853 15.9553Z" fill="white"/>
</svg>
