<svg width="82" height="63" viewBox="0 0 82 63" fill="none" xmlns="http://www.w3.org/2000/svg">
<g opacity="0.5">
<path d="M25.0156 59.7368C26.5171 60.2148 28.0435 60.6172 29.5948 60.9506L79.5755 23.0599C79.1359 21.8838 78.6049 20.7267 77.9745 19.5884L25.0156 59.7368Z" fill="white"/>
<path d="M18.5527 57.1391C19.8303 57.7743 21.1409 58.3403 22.4765 58.8497L76.8041 17.6636C76.1322 16.6448 75.3856 15.6512 74.5478 14.689L18.5527 57.1391Z" fill="white"/>
<path d="M13.0195 53.8248C14.098 54.592 15.2178 55.3089 16.3709 55.9693L73.0047 13.0349C72.1337 12.1607 71.188 11.3117 70.1759 10.4941L13.0195 53.8248Z" fill="white"/>
<path d="M27.6037 2.42578C21.9213 3.8911 16.5872 6.3375 12.0579 9.76495C7.52849 13.1987 4.30982 17.2425 2.37695 21.5504L27.6037 2.42578Z" fill="white"/>
<path d="M80.3297 37.505C80.7859 35.7629 81.0431 34.002 81.1012 32.2349L41.6973 62.1072C44.0283 62.0632 46.3593 61.8682 48.6489 61.5223L80.3297 37.505Z" fill="white"/>
<path d="M32.5898 61.5039C34.3983 61.7806 36.215 61.963 38.0483 62.051L81.0276 29.4682C80.9115 28.0783 80.6709 26.6948 80.3059 25.3301L32.5898 61.5039Z" fill="white"/>
<path d="M4.5332 45.2467C5.20514 46.2655 5.95175 47.2591 6.7896 48.2213L62.7846 5.77113C61.5071 5.13595 60.1964 4.56995 58.8608 4.06055L4.5332 45.2467Z" fill="white"/>
<path d="M1.00781 25.405C0.551553 27.147 0.294397 28.9079 0.236328 30.6751L39.6402 0.802734C37.3092 0.846757 34.9781 1.04171 32.6885 1.3876L1.00781 25.405Z" fill="white"/>
<path d="M53.7344 60.4845C59.4168 59.0191 64.7509 56.5728 69.2803 53.1453C73.8096 49.7116 77.0283 45.6678 78.9612 41.3599L53.7344 60.4845Z" fill="white"/>
<path d="M1.76172 39.8448C2.20138 41.0208 2.73229 42.178 3.36276 43.3163L56.3216 3.16788C54.8201 2.68992 53.2937 2.28741 51.7425 1.9541L1.76172 39.8448Z" fill="white"/>
<path d="M0.310547 33.4422C0.426685 34.8321 0.667252 36.2157 1.03226 37.5804L48.7483 1.40651C46.9399 1.1298 45.1232 0.94742 43.2898 0.859375L0.310547 33.4422Z" fill="white"/>
<path d="M8.33203 49.8748C9.20307 50.749 10.1488 51.598 11.1608 52.4155L68.3255 9.0786C67.2471 8.31136 66.1272 7.59442 64.9741 6.93408L8.33203 49.8748Z" fill="white"/>
</g>
</svg>
