<svg width="176" height="67" viewBox="0 0 176 67" fill="none" xmlns="http://www.w3.org/2000/svg">
<path d="M88.4422 135.106C40.1802 135.106 0.917969 104.983 0.917969 67.9545C0.917969 30.9261 40.1802 0.802734 88.4422 0.802734C136.704 0.802734 175.966 30.9261 175.966 67.9545C175.956 104.983 136.693 135.106 88.4422 135.106ZM88.4422 1.65117C40.7823 1.65117 2.01284 31.3965 2.01284 67.9629C2.01284 104.529 40.7823 134.275 88.4422 134.275C136.102 134.275 174.872 104.529 174.872 67.9629C174.872 31.3965 136.091 1.65117 88.4422 1.65117Z" fill="white"/>
<path d="M88.4429 128.621C44.8451 128.621 9.37109 101.404 9.37109 67.9543C9.37109 34.5045 44.8451 7.2876 88.4429 7.2876C132.041 7.2876 167.515 34.5045 167.515 67.9543C167.515 101.413 132.041 128.621 88.4429 128.621ZM88.4429 8.97606C46.0494 8.97606 11.5608 35.4369 11.5608 67.9628C11.5608 100.489 46.0494 126.949 88.4429 126.949C130.836 126.949 165.325 100.489 165.325 67.9628C165.325 35.4369 130.836 8.97606 88.4429 8.97606Z" fill="white"/>
<path d="M88.4427 111.779C56.9541 111.779 31.334 92.122 31.334 67.9628C31.334 43.8036 56.9541 24.147 88.4427 24.147C119.931 24.147 145.551 43.8036 145.551 67.9628C145.551 92.122 119.931 111.779 88.4427 111.779ZM88.4427 25.8186C58.1584 25.8186 33.5237 44.7192 33.5237 67.9544C33.5237 91.1895 58.1584 110.09 88.4427 110.09C118.727 110.09 143.362 91.1895 143.362 67.9544C143.362 44.7276 118.727 25.8186 88.4427 25.8186Z" fill="white"/>
<path d="M88.4431 104.243C62.3632 104.243 41.1445 87.9636 41.1445 67.9542C41.1445 47.9448 62.3632 31.665 88.4431 31.665C114.523 31.665 135.742 47.9448 135.742 67.9542C135.742 87.972 114.523 104.243 88.4431 104.243ZM88.4431 32.5051C62.9654 32.5051 42.2394 48.4068 42.2394 67.9542C42.2394 87.5016 62.9654 103.403 88.4431 103.403C113.921 103.403 134.647 87.5016 134.647 67.9542C134.647 48.4152 113.921 32.5051 88.4431 32.5051Z" fill="white"/>
<path d="M88.4427 90.5342C72.2167 90.5342 59.0234 80.4118 59.0234 67.9626C59.0234 55.5134 72.2167 45.3911 88.4427 45.3911C104.669 45.3911 117.862 55.5134 117.862 67.9626C117.862 80.4035 104.658 90.5342 88.4427 90.5342ZM88.4427 47.0628C73.432 47.0628 61.2132 56.4375 61.2132 67.9542C61.2132 79.471 73.432 88.8457 88.4427 88.8457C103.453 88.8457 115.672 79.471 115.672 67.9542C115.672 56.4375 103.453 47.0628 88.4427 47.0628Z" fill="white"/>
<path d="M88.4408 79.1773C80.3826 79.1773 73.8242 74.1456 73.8242 67.963C73.8242 61.7804 80.3826 56.7402 88.4408 56.7402C96.4991 56.7402 103.068 61.772 103.068 67.963C103.057 74.1456 96.4991 79.1773 88.4408 79.1773ZM88.4408 57.5803C80.9847 57.5803 74.9191 62.234 74.9191 67.963C74.9191 73.692 80.9847 78.3373 88.4408 78.3373C95.8969 78.3373 101.973 73.6836 101.973 67.963C101.973 62.2424 95.8969 57.5803 88.4408 57.5803Z" fill="white"/>
</svg>
