<svg width="24" height="25" viewBox="0 0 24 25" fill="none" xmlns="http://www.w3.org/2000/svg">
<path d="M20.4844 13.4328H18.1351C17.8153 13.4328 17.5058 13.4764 17.2112 13.5567C16.63 12.4143 15.4436 11.6294 14.0763 11.6294H9.9237C8.55645 11.6294 7.36997 12.4143 6.78881 13.5567C6.4942 13.4764 6.18464 13.4328 5.86491 13.4328H3.51562C1.57711 13.4328 0 15.0099 0 16.9484V20.7039C0 21.867 0.946267 22.8637 2.10938 22.8637H21.8906C23.0537 22.8637 24 21.867 24 20.7039V16.9484C24 15.0099 22.4229 13.4328 20.4844 13.4328ZM6 15.145V20.8628H3C2.5 20.8628 2 20.2505 2 19.8627V16.8627C2 15.6996 2.35252 15.145 3.51562 15.145C3.7065 15.145 6 15.145 6 15.145C6 15.0669 5.99494 15.222 6 15.145ZM16 20.8628H8.00002V15.145C8.00002 13.9819 8.83687 13.3628 9.99998 13.3628H14C15.1631 13.3628 16 13.9819 16 15.145V20.8628ZM22 20.3628C22 20.7504 21.5 20.8628 21 20.8628H18V15.145C18 15.0669 18.0051 14.9159 18 14.839C18 14.839 17.9442 14.839 18.1351 14.839H20.4844C21.6475 14.839 22 15.6996 22 16.8627V20.3628Z" fill="#A3D80D"/>
<path fill-rule="evenodd" clip-rule="evenodd" d="M11.9995 2.86279C9.65929 2.86279 8.13281 4.56007 8.13281 6.72955C8.13281 10.0427 9.83501 11.563 11.9995 11.563C14.1438 11.563 15.8663 10.0933 15.8663 6.92288C15.8663 4.72036 14.3333 2.86279 11.9995 2.86279ZM11.9997 9.63151C10.8573 9.63151 10.0664 8.92508 10.0664 6.73141C10.0664 5.58668 10.7757 4.79803 11.9997 4.79803C13.1749 4.79803 13.9331 5.71679 13.9331 6.92475C13.9331 8.95321 13.1382 9.63151 11.9997 9.63151Z" fill="#A3D80D"/>
<path fill-rule="evenodd" clip-rule="evenodd" d="M4.27583 4.86279C1.98942 4.86279 0.498047 6.52101 0.498047 8.64054C0.498047 11.8775 2.16109 13.3628 4.27583 13.3628C6.37069 13.3628 8.05358 11.9269 8.05358 8.82947C8.05358 6.67761 6.5559 4.86279 4.27583 4.86279ZM4.27854 11.4755C3.16241 11.4755 2.38965 10.7854 2.38965 8.64227C2.38965 7.52385 3.08263 6.75336 4.27854 6.75336C5.42666 6.75336 6.16743 7.65097 6.16743 8.83112C6.16743 10.8129 5.39081 11.4755 4.27854 11.4755Z" fill="#A3D80D"/>
<path fill-rule="evenodd" clip-rule="evenodd" d="M19.6743 4.86279C17.3879 4.86279 15.8965 6.52101 15.8965 8.64054C15.8965 11.8775 17.5595 13.3628 19.6743 13.3628C21.7691 13.3628 23.4521 11.9269 23.4521 8.82947C23.4521 6.67761 21.9543 4.86279 19.6743 4.86279ZM19.677 11.4755C18.5609 11.4755 17.7881 10.7854 17.7881 8.64227C17.7881 7.52385 18.4811 6.75336 19.677 6.75336C20.8251 6.75336 21.5659 7.65097 21.5659 8.83112C21.5659 10.8129 20.7893 11.4755 19.677 11.4755Z" fill="#A3D80D"/>
</svg>
