<svg width="55" height="48" viewBox="0 0 55 48" fill="none" xmlns="http://www.w3.org/2000/svg">
<path d="M27.5 47.863C12.6118 47.863 0.5 37.2943 0.5 24.3031C0.5 11.3118 12.6118 0.743164 27.5 0.743164C42.3882 0.743164 54.5 11.3118 54.5 24.3031C54.4966 37.2943 42.3848 47.863 27.5 47.863ZM27.5 1.04083C12.7976 1.04083 0.837753 11.4769 0.837753 24.306C0.837753 37.1352 12.7976 47.5712 27.5 47.5712C42.2024 47.5712 54.1622 37.1352 54.1622 24.306C54.1622 11.4769 42.199 1.04083 27.5 1.04083Z" fill="#C7FFB4"/>
<path d="M27.5 45.5874C14.0506 45.5874 3.10742 36.0385 3.10742 24.3027C3.10742 12.567 14.0506 3.01807 27.5 3.01807C40.9493 3.01807 51.8925 12.567 51.8925 24.3027C51.8925 36.0414 40.9493 45.5874 27.5 45.5874ZM27.5 3.61046C14.4222 3.61046 3.78293 12.8941 3.78293 24.3057C3.78293 35.7173 14.4222 45.0009 27.5 45.0009C40.5778 45.0009 51.217 35.7173 51.217 24.3057C51.217 12.8941 40.5778 3.61046 27.5 3.61046Z" fill="#C7FFB4"/>
<path d="M27.5 39.6783C17.7863 39.6783 9.88281 32.7819 9.88281 24.3057C9.88281 15.8296 17.7863 8.93311 27.5 8.93311C37.2138 8.93311 45.1172 15.8296 45.1172 24.3057C45.1172 32.7819 37.2138 39.6783 27.5 39.6783ZM27.5 9.5196C18.1578 9.5196 10.5583 16.1508 10.5583 24.3028C10.5583 32.4547 18.1578 39.0859 27.5 39.0859C36.8423 39.0859 44.4417 32.4547 44.4417 24.3028C44.4417 16.1537 36.8423 9.5196 27.5 9.5196Z" fill="#C7FFB4"/>
<path d="M27.4991 37.0351C19.4539 37.0351 12.9082 31.3234 12.9082 24.3032C12.9082 17.283 19.4539 11.5713 27.4991 11.5713C35.5444 11.5713 42.0901 17.283 42.0901 24.3032C42.0901 31.3264 35.5444 37.0351 27.4991 37.0351ZM27.4991 11.866C19.6396 11.866 13.246 17.4451 13.246 24.3032C13.246 31.1613 19.6396 36.7404 27.4991 36.7404C35.3587 36.7404 41.7523 31.1613 41.7523 24.3032C41.7523 17.448 35.3587 11.866 27.4991 11.866Z" fill="#C7FFB4"/>
<path d="M27.4993 32.2245C22.4938 32.2245 18.4238 28.6731 18.4238 24.3054C18.4238 19.9376 22.4938 16.3862 27.4993 16.3862C32.5048 16.3862 36.5747 19.9376 36.5747 24.3054C36.5747 28.6702 32.5014 32.2245 27.4993 32.2245ZM27.4993 16.9727C22.8687 16.9727 19.0993 20.2618 19.0993 24.3024C19.0993 28.343 22.8687 31.6321 27.4993 31.6321C32.1299 31.6321 35.8992 28.343 35.8992 24.3024C35.8992 20.2618 32.1299 16.9727 27.4993 16.9727Z" fill="#C7FFB4"/>
<path d="M27.5012 28.2396C25.0153 28.2396 22.9922 26.4743 22.9922 24.3051C22.9922 22.136 25.0153 20.3677 27.5012 20.3677C29.9871 20.3677 32.0136 22.133 32.0136 24.3051C32.0102 26.4743 29.9871 28.2396 27.5012 28.2396ZM27.5012 20.6624C25.2011 20.6624 23.3299 22.2951 23.3299 24.3051C23.3299 26.3151 25.2011 27.9449 27.5012 27.9449C29.8013 27.9449 31.6758 26.3122 31.6758 24.3051C31.6758 22.2981 29.8013 20.6624 27.5012 20.6624Z" fill="#C7FFB4"/>
</svg>
