<svg width="76" height="63" viewBox="0 0 76 63" fill="none" xmlns="http://www.w3.org/2000/svg">
<path d="M42.3056 49.7489C41.6816 50.3979 41.0826 51.0468 40.4586 51.7207C39.3604 52.8938 38.2622 54.0669 37.189 55.2649C35.8911 56.7125 34.3686 57.8856 32.8212 59.0088C32.7213 59.0836 32.896 58.9339 32.8212 59.0088C31.8977 59.4331 30.7246 60.082 29.8011 60.5063C28.7778 60.9805 27.7046 61.3299 26.5814 61.5546C26.4067 61.6295 26.1321 61.6544 25.9574 61.7293C25.7826 61.7542 25.7577 61.7792 25.583 61.8042C25.0589 61.904 24.335 62.1037 23.711 62.1037C21.8391 62.2285 20.5912 62.2285 18.7192 62.1037C17.8457 61.9789 17.0221 61.7542 16.2234 61.5296C11.1817 60.2068 7.16326 57.4114 4.11826 53.2183C1.74715 49.9486 0.798755 46.6041 0.124861 43.634C0.124861 43.5841 0.124861 43.4692 0.124861 43.3844C0.124861 42.9601 0.0747922 42.5607 0.0747922 42.1364C0.0747922 41.8868 0.0747922 41.3627 0.0747922 41.1381C0.0747922 40.2395 2.94113e-05 39.7903 2.94113e-05 38.8917C0 38.5174 1.63681e-05 38.3926 0 37.8934C0 37.3942 2.94113e-05 37.7187 2.94113e-05 37.3942C2.94113e-05 37.3308 0.0748939 36.7453 0.0748939 36.6954C0.599034 33.3259 1.8969 30.2559 3.74387 27.4605C4.84207 25.7883 6.21482 24.3157 7.78724 22.9679C9.3347 21.6451 11.007 20.5469 12.804 19.6483C14.7758 18.65 16.8973 18.026 19.1186 17.7764C19.7176 17.6766 19.7176 17.6766 19.7176 17.6766C20.3416 17.5518 20.9157 17.5518 21.5896 17.5518C21.8392 17.5518 22.0888 17.5518 22.3383 17.5518C23.162 17.5767 23.4616 17.5518 24.3351 17.6766C24.5155 17.7024 25.2086 17.7787 25.3584 17.8014C26.1821 17.9262 26.831 18.051 27.5797 18.1757C28.079 18.3505 27.9541 18.3005 28.0789 18.3505C28.9775 18.625 29.801 18.9245 30.6996 19.1741C30.7994 19.249 30.9742 19.2989 31.074 19.3738C31.2487 19.4487 31.3985 19.5235 31.5732 19.5984C31.7479 19.6733 31.8977 19.7731 32.0724 19.848C32.5716 20.0976 33.0458 20.3472 33.545 20.6217C33.8944 20.8713 34.2189 21.096 34.5683 21.3455C34.7181 21.4454 34.8928 21.5203 35.0425 21.6201C35.1424 21.695 35.2172 21.7699 35.3171 21.8447C35.7414 22.2191 36.1407 22.6185 36.565 22.9679C38.2622 24.3906 39.3355 26.2874 40.5585 28.0595C40.6833 28.2592 40.783 28.4838 40.9328 28.6586C41.0077 28.7584 41.1075 28.9581 41.1824 29.0329C41.6816 29.6569 42.0208 30.0772 42.5302 30.805C42.7049 31.0546 42.8547 31.3042 43.0294 31.5538C44.527 33.8001 46.0245 36.0464 47.547 38.2678C47.7965 38.6422 47.7965 38.6422 48.0462 39.0166C48.5454 39.8402 49.0445 40.6389 49.5687 41.4875C49.1444 42.0865 48.7201 42.6606 48.2958 43.2596C48.2209 43.3594 48.1211 43.4343 48.0462 43.5341C46.8981 44.7821 45.725 46.03 44.5769 47.303C44.1775 47.7522 43.9279 48.1266 43.5286 48.526C43.3788 48.7007 43.2041 48.8504 43.0544 49.0251C42.8048 49.2498 42.5552 49.4994 42.3056 49.7489ZM45.8498 41.3128C45.3506 40.5391 44.8764 39.7653 44.3772 39.0166C43.0294 36.9949 41.6567 35.0231 40.3089 33.0014C39.1108 31.2293 38.0126 29.4073 36.7397 27.6851C35.5167 26.0129 33.8944 24.7899 32.1473 23.6917C29.3768 21.9695 26.3568 21.2707 23.162 21.096C22.3134 21.046 21.4398 21.2457 20.5912 21.2956C18.4447 21.3955 16.5229 22.1692 14.626 23.0677C12.1301 24.2658 10.1084 26.1127 8.3613 28.2093C5.49101 31.6786 4.29297 35.8218 4.14322 40.2645C4.14322 40.7894 4.14315 41.4376 4.24298 41.8868C4.39274 43.1847 4.6424 44.3578 5.04174 45.5558C6.73896 50.7972 10.0336 54.6409 15.0503 56.9621C18.3699 58.5096 21.8142 58.834 25.4083 58.235C29.1522 57.611 32.297 55.8889 34.9177 53.2183C36.2655 51.8205 37.4885 50.323 38.8113 48.8754C40.858 46.654 42.9046 44.4327 44.9513 42.2113C45.2508 41.9368 45.5253 41.6373 45.8498 41.3128Z" fill="white"/>
<path d="M75.9999 21.3207C75.9999 21.6701 75.925 22.2192 75.875 22.5437C75.1512 26.3624 73.1296 29.4074 70.7585 32.4774C68.4373 35.4725 65.4672 37.6439 62.0977 39.2663C60.101 40.2147 57.9795 40.7888 55.7831 41.0883C54.635 41.238 53.5118 41.3628 52.3887 41.238C52.5634 38.842 52.7131 36.5208 53.4619 34.2994C54.4852 31.2544 55.9578 28.459 58.0045 25.9381C60.101 23.3673 62.7217 21.4954 65.592 19.9729C67.7634 18.8248 70.1096 18.1509 72.5556 17.8015C73.7037 17.6268 74.8518 17.6268 75.9999 17.6018C75.9999 18.8248 75.9999 20.0728 75.9999 21.3207Z" fill="white"/>
<path d="M49.5439 0.0805664C58.2546 7.66812 59.5275 24.1411 49.7934 33.2761C46.4988 30.88 42.6801 23.592 42.755 16.8281C42.8548 10.3637 45.0512 4.82279 49.5439 0.0805664Z" fill="white"/>
<path d="M26.7571 40.9636C28.3545 42.2864 28.8038 44.1833 28.03 45.8805C27.5059 47.0037 26.5574 47.5029 25.4343 47.7275C25.1597 47.7774 24.8602 47.7525 24.5607 47.7525C23.2878 47.7525 22.0149 47.7525 20.6421 47.7525C20.6172 47.453 20.6172 47.2533 20.6172 47.0536C20.6172 43.5094 20.6172 39.9902 20.6172 36.446C20.6172 35.3478 20.6421 35.2979 21.7154 35.3229C22.8635 35.3478 24.0116 35.3229 25.1847 35.4726C27.7555 35.7971 28.5042 38.9669 26.9568 40.5393C26.8569 40.6392 26.832 40.7889 26.7571 40.9636ZM22.3394 42.0369C22.3394 43.3098 22.3144 44.4579 22.3643 45.631C22.3643 45.8306 22.589 46.1551 22.7387 46.1801C23.762 46.3298 24.8103 46.3548 25.7088 45.7558C26.4077 45.2815 26.6822 44.5078 26.5325 43.6842C26.3827 42.8106 25.5341 42.0868 24.6356 42.0369C23.9118 41.9869 23.2129 42.0369 22.3394 42.0369ZM22.3893 40.5144C23.2628 40.4644 24.0865 40.6391 24.8852 40.3147C25.5591 40.0401 25.8336 39.6408 25.8336 38.7672C25.8336 37.8937 25.584 37.5442 24.8602 37.2447C24.0615 36.8953 23.2628 37.07 22.3893 37.045C22.3893 38.2181 22.3893 39.2664 22.3893 40.5144Z" fill="white"/>
<path d="M16.4737 48.5011C16.349 48.1767 16.1992 47.9271 16.1243 47.6525C16.0245 47.2781 15.8497 47.0036 16.4987 46.8538C17.5719 46.6542 17.5719 45.8056 17.5969 45.0568C17.6468 43.1849 17.6219 41.3129 17.6219 39.441C17.6219 38.6922 17.6219 37.9435 17.6219 37.1448C17.3972 37.0948 17.2225 37.0699 17.0228 37.02C16.4488 36.8702 16.3739 36.6955 16.3989 36.0216C16.4238 35.4725 16.6984 35.3228 17.1976 35.3228C19.6935 35.3477 19.3191 35.1231 19.344 37.2945C19.344 39.9901 19.369 42.6857 19.344 45.4062C19.344 46.5294 19.0196 47.5277 17.9214 48.0519C17.4721 48.2515 17.0228 48.3264 16.4737 48.5011Z" fill="white"/>
<g clip-path="url(#clip0_168_2119)">
<path d="M29.6375 32.0281V34.0855H27.5801V35.7112H29.6375V37.7687H31.2632V35.7112H33.3207V34.0855H31.2632V32.0281H29.6375Z" fill="white"/>
</g>
<defs>
<clipPath id="clip0_168_2119">
<rect width="5.74058" height="5.74058" fill="white" transform="translate(27.5801 32.0281)"/>
</clipPath>
</defs>
</svg>
