<svg width="176" height="53" viewBox="0 0 176 53" fill="none" xmlns="http://www.w3.org/2000/svg">
<rect x="0.5" y="0.580566" width="175" height="51" rx="4.5" fill="black"/>
<rect x="0.5" y="0.580566" width="175" height="51" rx="4.5" stroke="#A6A6A6"/>
<path d="M139.411 39.0806H141.844V22.8285H139.411V39.0806ZM161.322 28.6832L158.534 35.7291H158.45L155.556 28.6832H152.936L157.277 38.5307L154.801 44.0089H157.338L164.027 28.6832H161.322ZM147.525 37.2347C146.73 37.2347 145.618 36.8371 145.618 35.8545C145.618 34.6002 147.002 34.1193 148.197 34.1193C149.266 34.1193 149.77 34.3489 150.419 34.6627C150.23 36.1684 148.931 37.2347 147.525 37.2347ZM147.82 28.3277C146.059 28.3277 144.235 29.1016 143.48 30.816L145.639 31.7148C146.1 30.816 146.959 30.5235 147.862 30.5235C149.12 30.5235 150.399 31.2755 150.419 32.6142V32.7812C149.979 32.5303 149.035 32.1541 147.882 32.1541C145.554 32.1541 143.185 33.4291 143.185 35.8128C143.185 37.9873 145.094 39.3884 147.232 39.3884C148.867 39.3884 149.77 38.6566 150.335 37.7989H150.419V39.0542H152.769V32.8228C152.769 29.9375 150.607 28.3277 147.82 28.3277ZM132.786 30.6616H129.325V25.0909H132.786C134.604 25.0909 135.637 26.592 135.637 27.8762C135.637 29.1356 134.604 30.6616 132.786 30.6616ZM132.723 22.8285H126.894V39.0806H129.325V32.9234H132.723C135.419 32.9234 138.069 30.9775 138.069 27.8762C138.069 24.7755 135.419 22.8285 132.723 22.8285ZM100.937 37.2377C99.2562 37.2377 97.8496 35.8341 97.8496 33.908C97.8496 31.9596 99.2562 30.5361 100.937 30.5361C102.596 30.5361 103.898 31.9596 103.898 33.908C103.898 35.8341 102.596 37.2377 100.937 37.2377ZM103.73 29.5932H103.646C103.1 28.9441 102.05 28.3577 100.727 28.3577C97.9541 28.3577 95.4129 30.7875 95.4129 33.908C95.4129 37.0072 97.9541 39.4158 100.727 39.4158C102.05 39.4158 103.1 38.8292 103.646 38.1594H103.73V38.9546C103.73 41.0707 102.596 42.2011 100.769 42.2011C99.2781 42.2011 98.3539 41.1332 97.9755 40.2328L95.8545 41.1124C96.463 42.5779 98.0799 44.3796 100.769 44.3796C103.626 44.3796 106.041 42.7039 106.041 38.6195V28.6928H103.73V29.5932ZM107.722 39.0806H110.157V22.8285H107.722V39.0806ZM113.749 33.7192C113.686 31.5827 115.409 30.494 116.647 30.494C117.614 30.494 118.432 30.9759 118.706 31.6666L113.749 33.7192ZM121.31 31.8758C120.848 30.6408 119.441 28.3577 116.563 28.3577C113.706 28.3577 111.333 30.5986 111.333 33.8867C111.333 36.9864 113.686 39.4158 116.836 39.4158C119.377 39.4158 120.848 37.8664 121.457 36.9655L119.567 35.7087C118.937 36.6304 118.076 37.2377 116.836 37.2377C115.597 37.2377 114.715 36.6721 114.149 35.562L121.562 32.5044L121.31 31.8758ZM62.2418 30.0542V32.3998H67.8706C67.7025 33.7192 67.2615 34.6825 66.5893 35.3527C65.7699 36.1693 64.4887 37.0702 62.2418 37.0702C58.7762 37.0702 56.067 34.2848 56.067 30.8291C56.067 27.3735 58.7762 24.5877 62.2418 24.5877C64.1112 24.5877 65.4761 25.3209 66.4844 26.2634L68.1441 24.6085C66.7365 23.2683 64.8675 22.2421 62.2418 22.2421C57.4944 22.2421 53.5039 26.0958 53.5039 30.8291C53.5039 35.562 57.4944 39.4158 62.2418 39.4158C64.8039 39.4158 66.7365 38.5779 68.2485 37.0072C69.8028 35.4574 70.2861 33.2794 70.2861 31.5198C70.2861 30.9759 70.2437 30.4732 70.1598 30.0542H62.2418ZM76.6855 37.2377C75.0048 37.2377 73.5555 35.8554 73.5555 33.8867C73.5555 31.8971 75.0048 30.5361 76.6855 30.5361C78.3654 30.5361 79.8147 31.8971 79.8147 33.8867C79.8147 35.8554 78.3654 37.2377 76.6855 37.2377ZM76.6855 28.3577C73.6181 28.3577 71.1192 30.6824 71.1192 33.8867C71.1192 37.0702 73.6181 39.4158 76.6855 39.4158C79.7516 39.4158 82.2511 37.0702 82.2511 33.8867C82.2511 30.6824 79.7516 28.3577 76.6855 28.3577ZM88.8266 37.2377C87.1472 37.2377 85.6973 35.8554 85.6973 33.8867C85.6973 31.8971 87.1472 30.5361 88.8266 30.5361C90.5072 30.5361 91.956 31.8971 91.956 33.8867C91.956 35.8554 90.5072 37.2377 88.8266 37.2377ZM88.8266 28.3577C85.7604 28.3577 83.2615 30.6824 83.2615 33.8867C83.2615 37.0702 85.7604 39.4158 88.8266 39.4158C91.8939 39.4158 94.3929 37.0702 94.3929 33.8867C94.3929 30.6824 91.8939 28.3577 88.8266 28.3577Z" fill="white"/>
<path d="M60.9425 11.2617H59.6143C59.5765 11.0439 59.5066 10.8509 59.4048 10.6828C59.303 10.5124 59.1764 10.368 59.0249 10.2496C58.8733 10.1312 58.7005 10.0425 58.5064 9.98327C58.3146 9.92171 58.1075 9.89094 57.8849 9.89094C57.4896 9.89094 57.1392 9.99037 56.8338 10.1892C56.5284 10.3857 56.2893 10.6746 56.1165 11.0557C55.9437 11.4345 55.8572 11.8973 55.8572 12.4442C55.8572 13.0005 55.9437 13.4693 56.1165 13.8505C56.2917 14.2292 56.5308 14.5157 56.8338 14.7098C57.1392 14.9016 57.4884 14.9975 57.8814 14.9975C58.0992 14.9975 58.3028 14.9691 58.4922 14.9122C58.6839 14.8531 58.8556 14.7666 59.0071 14.653C59.161 14.5394 59.29 14.3997 59.3942 14.234C59.5007 14.0683 59.5741 13.8789 59.6143 13.6658L60.9425 13.6729C60.8928 14.0185 60.785 14.3429 60.6193 14.6459C60.456 14.9489 60.2417 15.2165 59.9766 15.4485C59.7114 15.6781 59.4013 15.858 59.0462 15.9882C58.6911 16.1161 58.2969 16.18 57.8636 16.18C57.2244 16.18 56.6539 16.032 56.152 15.7361C55.6501 15.4402 55.2547 15.0129 54.9659 14.4541C54.6771 13.8954 54.5327 13.2255 54.5327 12.4442C54.5327 11.6606 54.6783 10.9906 54.9695 10.4343C55.2607 9.87555 55.6572 9.44823 56.1591 9.1523C56.661 8.85637 57.2292 8.70841 57.8636 8.70841C58.2685 8.70841 58.6449 8.76523 58.9929 8.87886C59.3409 8.9925 59.651 9.1594 59.9233 9.37957C60.1955 9.59737 60.4193 9.86489 60.5945 10.1821C60.772 10.497 60.888 10.8568 60.9425 11.2617ZM66.6562 16.0806L64.2627 12.9023H63.6164V16.0806H62.299V8.80784H63.6164V11.7979H63.9467L66.5319 8.80784H68.1548L65.2819 12.1246L68.2791 16.0806H66.6562ZM70.2579 16.0806H68.8517L71.412 8.80784H73.0385L75.6024 16.0806H74.1961L72.2537 10.2993H72.1968L70.2579 16.0806ZM70.3041 13.229H74.1393V14.2872H70.3041V13.229ZM76.9269 8.80784H78.216V11.18C78.216 11.4878 78.2692 11.7316 78.3758 11.9115C78.4847 12.0915 78.6457 12.2205 78.8587 12.2986C79.0718 12.3767 79.337 12.4158 79.6542 12.4158C79.7962 12.4158 79.9489 12.4111 80.1123 12.4016C80.278 12.3898 80.4449 12.3744 80.613 12.3554C80.7811 12.3341 80.9421 12.3093 81.096 12.2809C81.2498 12.2501 81.3871 12.2169 81.5079 12.1814V13.2539C81.3871 13.2917 81.2522 13.3261 81.1031 13.3568C80.9539 13.3876 80.7965 13.4137 80.6308 13.435C80.465 13.4563 80.2993 13.4728 80.1336 13.4847C79.9679 13.4965 79.8081 13.5024 79.6542 13.5024C79.0978 13.5024 78.6149 13.4231 78.2053 13.2645C77.7981 13.1035 77.4833 12.8526 77.2607 12.5117C77.0382 12.1708 76.9269 11.7269 76.9269 11.18V8.80784ZM81.2913 8.80784H82.5874V16.0806H81.2913V8.80784ZM85.2747 16.0806H83.8685L86.4288 8.80784H88.0553L90.6192 16.0806H89.2129L87.2705 10.2993H87.2136L85.2747 16.0806ZM85.3209 13.229H89.1561V14.2872H85.3209V13.229ZM91.7271 8.80784H93.0339V13.7652H93.1014L96.5211 8.80784H97.7037V16.0806H96.3862V11.1267H96.3258L92.8954 16.0806H91.7271V8.80784ZM95.4203 6.93284H96.3826C96.3826 7.34714 96.2323 7.68331 95.9316 7.94136C95.6333 8.19704 95.2285 8.32488 94.7172 8.32488C94.2105 8.32488 93.8069 8.19704 93.5062 7.94136C93.2079 7.68331 93.06 7.34714 93.0623 6.93284H94.0176C94.0176 7.10329 94.0697 7.25599 94.1738 7.39094C94.2804 7.52351 94.4615 7.5898 94.7172 7.5898C94.9681 7.5898 95.1468 7.52351 95.2534 7.39094C95.3623 7.25836 95.4179 7.10566 95.4203 6.93284ZM98.9696 9.91224V8.80784H104.772V9.91224H102.524V16.0806H101.217V9.91224H98.9696ZM106.041 16.0806V8.80784H110.771V9.91224H107.358V11.8867H110.526V12.9911H107.358V14.9762H110.799V16.0806H106.041Z" fill="white"/>
<path d="M27.0049 25.3308L13.125 40.0208C13.1255 40.0239 13.1266 40.0264 13.1271 40.0295C13.5527 41.6245 15.0138 42.7991 16.7479 42.7991C17.441 42.7991 18.0919 42.6122 18.65 42.2841L18.6943 42.2582L34.3179 33.2685L27.0049 25.3308Z" fill="#EA4335"/>
<path d="M41.049 22.8293L41.0357 22.8202L34.2906 18.9211L26.6914 25.6639L34.317 33.2668L41.0265 29.4065C42.2029 28.7733 43.0014 27.5367 43.0014 26.1107C43.0014 24.695 42.2136 23.4646 41.049 22.8293Z" fill="#FBBC04"/>
<path d="M13.1253 12.1398C13.0419 12.4466 12.998 12.7679 12.998 13.1016V39.0595C12.998 39.3926 13.0414 39.715 13.1259 40.0208L27.4834 25.7066L13.1253 12.1398Z" fill="#4285F4"/>
<path d="M27.1077 26.0806L34.2919 18.9189L18.6861 9.89661C18.1188 9.55783 17.4568 9.36231 16.7484 9.36231C15.0143 9.36231 13.5513 10.5389 13.1255 12.136C13.125 12.1375 13.125 12.1386 13.125 12.14L27.1077 26.0806Z" fill="#34A853"/>
</svg>
