<svg width="20" height="21" viewBox="0 0 20 21" fill="none" xmlns="http://www.w3.org/2000/svg">
<rect y="0.401367" width="20" height="20" rx="4" fill="#F5F4F3"/>
<path d="M10 6.15137C11.375 6.15137 11.5625 6.15137 12.125 6.15137C12.625 6.15137 12.875 6.27637 13.0625 6.33887C13.3125 6.46387 13.5 6.52637 13.6875 6.71387C13.875 6.90137 14 7.08887 14.0625 7.33887C14.125 7.52637 14.1875 7.77637 14.25 8.27637C14.25 8.83887 14.25 8.96387 14.25 10.4014C14.25 11.8389 14.25 11.9639 14.25 12.5264C14.25 13.0264 14.125 13.2764 14.0625 13.4639C13.9375 13.7139 13.875 13.9014 13.6875 14.0889C13.5 14.2764 13.3125 14.4014 13.0625 14.4639C12.875 14.5264 12.625 14.5889 12.125 14.6514C11.5625 14.6514 11.4375 14.6514 10 14.6514C8.5625 14.6514 8.4375 14.6514 7.875 14.6514C7.375 14.6514 7.125 14.5264 6.9375 14.4639C6.6875 14.3389 6.5 14.2764 6.3125 14.0889C6.125 13.9014 6 13.7139 5.9375 13.4639C5.875 13.2764 5.8125 13.0264 5.75 12.5264C5.75 11.9639 5.75 11.8389 5.75 10.4014C5.75 8.96387 5.75 8.83887 5.75 8.27637C5.75 7.77637 5.875 7.52637 5.9375 7.33887C6.0625 7.08887 6.125 6.90137 6.3125 6.71387C6.5 6.52637 6.6875 6.40137 6.9375 6.33887C7.125 6.27637 7.375 6.21387 7.875 6.15137C8.4375 6.15137 8.625 6.15137 10 6.15137ZM10 5.21387C8.5625 5.21387 8.4375 5.21387 7.875 5.21387C7.3125 5.21387 6.9375 5.33887 6.625 5.46387C6.3125 5.58887 6 5.77637 5.6875 6.08887C5.375 6.40137 5.25 6.65137 5.0625 7.02637C4.9375 7.33887 4.875 7.71387 4.8125 8.27637C4.8125 8.83887 4.8125 9.02637 4.8125 10.4014C4.8125 11.8389 4.8125 11.9639 4.8125 12.5264C4.8125 13.0889 4.9375 13.4639 5.0625 13.7764C5.1875 14.0889 5.375 14.4014 5.6875 14.7139C6 15.0264 6.25 15.1514 6.625 15.3389C6.9375 15.4639 7.3125 15.5264 7.875 15.5889C8.4375 15.5889 8.625 15.5889 10 15.5889C11.375 15.5889 11.5625 15.5889 12.125 15.5889C12.6875 15.5889 13.0625 15.4639 13.375 15.3389C13.6875 15.2139 14 15.0264 14.3125 14.7139C14.625 14.4014 14.75 14.1514 14.9375 13.7764C15.0625 13.4639 15.125 13.0889 15.1875 12.5264C15.1875 11.9639 15.1875 11.7764 15.1875 10.4014C15.1875 9.02637 15.1875 8.83887 15.1875 8.27637C15.1875 7.71387 15.0625 7.33887 14.9375 7.02637C14.8125 6.71387 14.625 6.40137 14.3125 6.08887C14 5.77637 13.75 5.65137 13.375 5.46387C13.0625 5.33887 12.6875 5.27637 12.125 5.21387C11.5625 5.21387 11.4375 5.21387 10 5.21387Z" fill="#4E4F51"/>
<path d="M10 7.71387C8.5 7.71387 7.3125 8.90137 7.3125 10.4014C7.3125 11.9014 8.5 13.0889 10 13.0889C11.5 13.0889 12.6875 11.9014 12.6875 10.4014C12.6875 8.90137 11.5 7.71387 10 7.71387ZM10 12.1514C9.0625 12.1514 8.25 11.4014 8.25 10.4014C8.25 9.46387 9 8.65137 10 8.65137C10.9375 8.65137 11.75 9.40137 11.75 10.4014C11.75 11.3389 10.9375 12.1514 10 12.1514Z" fill="#4E4F51"/>
<path d="M12.75 8.27637C13.0952 8.27637 13.375 7.99655 13.375 7.65137C13.375 7.30619 13.0952 7.02637 12.75 7.02637C12.4048 7.02637 12.125 7.30619 12.125 7.65137C12.125 7.99655 12.4048 8.27637 12.75 8.27637Z" fill="#4E4F51"/>
</svg>
