<svg width="20" height="21" viewBox="0 0 20 21" fill="none" xmlns="http://www.w3.org/2000/svg">
<rect y="0.401367" width="20" height="20" rx="4" fill="#F5F4F3"/>
<path d="M7.59375 14.7764H5.73437V8.9248H7.59375V14.7764ZM6.66406 8.10449C6.0625 8.10449 5.625 7.66699 5.625 7.06543C5.625 6.46387 6.11719 6.02637 6.66406 6.02637C7.26563 6.02637 7.70313 6.46387 7.70313 7.06543C7.70313 7.66699 7.26563 8.10449 6.66406 8.10449ZM14.375 14.7764H12.5156V11.6045C12.5156 10.6748 12.1328 10.4014 11.5859 10.4014C11.0391 10.4014 10.4922 10.8389 10.4922 11.6592V14.7764H8.63281V8.9248H10.3828V9.74512C10.5469 9.3623 11.2031 8.76074 12.1328 8.76074C13.1719 8.76074 14.2656 9.3623 14.2656 11.167V14.7764H14.375Z" fill="#4E4F51"/>
</svg>
