<svg width="25" height="26" viewBox="0 0 25 26" fill="none" xmlns="http://www.w3.org/2000/svg">
<g clip-path="url(#clip0_132_15124)">
<path d="M12.47 25.3027L7.39019 20.3125C6.36505 19.3055 5.75302 18.0279 5.56942 16.7052L4.65138 17.607L0 13.0527L12.47 0.802734L17.5498 5.79292C18.5596 6.78494 19.1869 8.03249 19.3706 9.38525L20.2886 8.48341L24.94 13.0527L12.47 25.3027ZM11.7509 10.9635C10.4962 11.0086 9.31806 11.5046 8.41533 12.3914C6.47215 14.3003 6.47215 17.3966 8.41533 19.3055L12.47 23.2886L22.8897 13.0527L20.2886 10.4975L19.3093 11.4595C19.0645 12.692 18.4678 13.8193 17.5498 14.7211C16.188 16.0589 14.3061 16.7202 12.3935 16.5398L11.7356 16.4797V10.9635H11.7509ZM2.05028 13.0527L4.65138 15.6079L5.63062 14.646C5.86013 13.4586 6.45685 12.3162 7.39019 11.3843C8.75194 10.0466 10.6186 9.38525 12.5465 9.56562L13.2044 9.62574V15.142C14.4591 15.0969 15.6372 14.6009 16.5399 13.7141C17.4733 12.7972 17.9935 11.5647 17.9935 10.257C17.9935 8.94936 17.4733 7.71684 16.5399 6.79997L12.47 2.81684L2.05028 13.0527Z" fill="#14007B"/>
</g>
<defs>
<clipPath id="clip0_132_15124">
<rect width="24.94" height="24.5" fill="white" transform="translate(0 0.802734)"/>
</clipPath>
</defs>
</svg>
