<svg width="70" height="57" viewBox="0 0 70 57" fill="none" xmlns="http://www.w3.org/2000/svg">
<path d="M38.6865 45.4194C38.1159 46.0128 37.5681 46.6062 36.9975 47.2225C35.9933 48.2952 34.989 49.3679 34.0076 50.4635C32.8208 51.7872 31.4285 52.86 30.0134 53.887C29.9221 53.9555 30.0819 53.8186 30.0134 53.887C29.1689 54.275 28.0962 54.8685 27.2517 55.2565C26.316 55.6901 25.3345 56.0097 24.3075 56.2151C24.1477 56.2836 23.8966 56.3064 23.7368 56.3748C23.577 56.3977 23.5543 56.4205 23.3945 56.4433C22.9152 56.5346 22.2532 56.7172 21.6826 56.7172C19.9709 56.8313 18.8297 56.8313 17.1179 56.7172C16.319 56.6031 15.5659 56.3977 14.8355 56.1923C10.2251 54.9826 6.55047 52.4263 3.76596 48.5919C1.59769 45.602 0.730424 42.5436 0.114179 39.8275C0.114179 39.7819 0.114179 39.6769 0.114179 39.5993C0.114179 39.2113 0.068394 38.8461 0.068394 38.4581C0.068394 38.2299 0.068394 37.7506 0.068394 37.5451C0.068394 36.7235 2.68953e-05 36.3126 2.68953e-05 35.491C0 35.1486 1.49679e-05 35.0345 0 34.578C0 34.1215 2.68953e-05 34.4183 2.68953e-05 34.1215C2.68953e-05 34.0635 0.068487 33.5281 0.068487 33.4825C0.547789 30.4013 1.73463 27.5939 3.4236 25.0376C4.42785 23.5084 5.68316 22.1618 7.12107 20.9293C8.53615 19.7197 10.0654 18.7154 11.7087 17.8938C13.5118 16.9808 15.4518 16.4102 17.4831 16.182C18.0308 16.0907 18.0308 16.0907 18.0308 16.0907C18.6015 15.9765 19.1264 15.9765 19.7427 15.9765C19.9709 15.9765 20.1991 15.9765 20.4274 15.9765C21.1806 15.9994 21.4545 15.9765 22.2533 16.0907C22.4183 16.1143 23.0521 16.1841 23.1891 16.2048C23.9423 16.3189 24.5357 16.433 25.2204 16.5472C25.6769 16.7069 25.5628 16.6613 25.6769 16.7069C26.4985 16.958 27.2517 17.2319 28.0733 17.4601C28.1646 17.5286 28.3245 17.5742 28.4158 17.6427C28.5755 17.7112 28.7125 17.7797 28.8722 17.8481C29.032 17.9166 29.1689 18.0079 29.3287 18.0764C29.7852 18.3046 30.2188 18.5328 30.6753 18.7839C30.9949 19.0121 31.2916 19.2176 31.6111 19.4458C31.748 19.5371 31.9078 19.6056 32.0448 19.6969C32.1361 19.7653 32.2045 19.8338 32.2958 19.9023C32.6838 20.2446 33.049 20.6098 33.437 20.9293C34.989 22.2303 35.9705 23.9649 37.0888 25.5854C37.203 25.768 37.2942 25.9734 37.4311 26.1332C37.4996 26.2245 37.5909 26.4071 37.6594 26.4756C38.1158 27.0462 38.426 27.4305 38.8919 28.096C39.0517 28.3243 39.1886 28.5525 39.3484 28.7808C40.7178 30.8349 42.0873 32.8891 43.4795 34.9204C43.7077 35.2627 43.7077 35.2627 43.936 35.6051C44.3925 36.3583 44.849 37.0887 45.3283 37.8647C44.9403 38.4124 44.5522 38.9374 44.1642 39.4852C44.0958 39.5765 44.0045 39.6449 43.936 39.7362C42.8861 40.8774 41.8134 42.0186 40.7635 43.1826C40.3982 43.5935 40.17 43.9358 39.8049 44.301C39.6679 44.4608 39.5082 44.5977 39.3712 44.7575C39.143 44.9629 38.9147 45.1911 38.6865 45.4194ZM41.9275 37.7049C41.471 36.9974 41.0374 36.2898 40.5809 35.6051C39.3484 33.7564 38.0931 31.9533 36.8606 30.1045C35.7651 28.4841 34.7608 26.8179 33.5968 25.2431C32.4784 23.7139 30.9949 22.5955 29.3972 21.5912C26.8637 20.0164 24.102 19.3773 21.1806 19.2176C20.4046 19.1719 19.6057 19.3545 18.8297 19.4001C16.8669 19.4914 15.1094 20.199 13.3748 21.0206C11.0924 22.1162 9.24369 23.8052 7.64602 25.7224C5.02127 28.8949 3.92572 32.6836 3.78878 36.7463C3.78878 37.2263 3.78872 37.819 3.88001 38.2299C4.01695 39.4167 4.24526 40.4894 4.61044 41.585C6.16247 46.378 9.17522 49.8929 13.7628 52.0155C16.7984 53.4306 19.9481 53.7273 23.2347 53.1795C26.6583 52.6089 29.5341 51.0341 31.9306 48.5919C33.1631 47.3138 34.2815 45.9443 35.4912 44.6205C37.3627 42.5892 39.2343 40.5579 41.1058 38.5266C41.3797 38.2755 41.6308 38.0016 41.9275 37.7049Z" fill="#A0D26F"/>
<path d="M69.4977 19.4232C69.4977 19.7428 69.4291 20.2449 69.3834 20.5416C68.7215 24.0337 66.8729 26.8182 64.7046 29.6255C62.582 32.3644 59.866 34.35 56.7847 35.8336C54.9588 36.7009 53.0188 37.2259 51.0103 37.4997C49.9604 37.6367 48.9333 37.7508 47.9062 37.6367C48.066 35.4456 48.203 33.323 48.8877 31.2916C49.8235 28.5071 51.1701 25.9509 53.0416 23.6456C54.9588 21.2948 57.3553 19.583 59.9801 18.1907C61.9658 17.1408 64.1112 16.5246 66.348 16.2051C67.3979 16.0453 68.4478 16.0453 69.4977 16.0225C69.4977 17.1408 69.4977 18.282 69.4977 19.4232Z" fill="#A0D26F"/>
<path d="M45.3048 0C53.2703 6.93846 54.4343 22.0022 45.533 30.3558C42.5203 28.1647 39.0282 21.5001 39.0967 15.3148C39.188 9.40344 41.1965 4.33654 45.3048 0Z" fill="#A0D26F"/>
<path d="M24.4682 37.3852C25.9289 38.5949 26.3398 40.3295 25.6322 41.8816C25.1529 42.9086 24.2856 43.3651 23.2585 43.5705C23.0075 43.6162 22.7336 43.5933 22.4597 43.5933C21.2957 43.5933 20.1317 43.5933 18.8763 43.5933C18.8535 43.3195 18.8535 43.1369 18.8535 42.9543C18.8535 39.7133 18.8535 36.4951 18.8535 33.2541C18.8535 32.2499 18.8763 32.2042 19.8578 32.227C20.9077 32.2499 21.9576 32.227 23.0303 32.364C25.3811 32.6607 26.0659 35.5593 24.6508 36.9972C24.5595 37.0885 24.5367 37.2255 24.4682 37.3852ZM20.4284 38.3667C20.4284 39.5307 20.4055 40.5806 20.4512 41.6533C20.4512 41.8359 20.6566 42.1326 20.7935 42.1554C21.7293 42.2924 22.6879 42.3152 23.5096 41.7674C24.1487 41.3338 24.3997 40.6262 24.2628 39.873C24.1258 39.0742 23.3498 38.4123 22.5282 38.3667C21.8663 38.321 21.2272 38.3667 20.4284 38.3667ZM20.474 36.9744C21.2728 36.9288 22.026 37.0885 22.7564 36.7918C23.3726 36.5408 23.6237 36.1756 23.6237 35.3767C23.6237 34.5779 23.3955 34.2584 22.7336 33.9845C22.0032 33.665 21.2728 33.8247 20.474 33.8019C20.474 34.8746 20.474 35.8332 20.474 36.9744Z" fill="#93C25F"/>
<path d="M15.0643 44.2786C14.9502 43.9818 14.8132 43.7536 14.7448 43.5025C14.6535 43.1602 14.4936 42.9091 15.0871 42.7722C16.0685 42.5896 16.0685 41.8136 16.0914 41.1289C16.137 39.4171 16.1142 37.7053 16.1142 35.9935C16.1142 35.3088 16.1142 34.624 16.1142 33.8937C15.9088 33.848 15.749 33.8252 15.5664 33.7796C15.0415 33.6426 14.973 33.4829 14.9958 32.8666C15.0186 32.3645 15.2697 32.2275 15.7262 32.2275C18.0086 32.2504 17.6662 32.045 17.689 34.0306C17.689 36.4956 17.7119 38.9606 17.689 41.4484C17.689 42.4755 17.3923 43.3884 16.3881 43.8677C15.9773 44.0503 15.5664 44.1188 15.0643 44.2786Z" fill="#93C25F"/>
<g clip-path="url(#clip0_168_2110)">
<path d="M27.1002 29.2144V31.0958H25.2188V32.5824H27.1002V34.4639H28.5868V32.5824H30.4682V31.0958H28.5868V29.2144H27.1002Z" fill="#A0D26F"/>
</g>
<defs>
<clipPath id="clip0_168_2110">
<rect width="5.24949" height="5.24949" fill="white" transform="translate(25.2188 29.2144)"/>
</clipPath>
</defs>
</svg>
