<svg width="30" height="24" viewBox="0 0 30 24" fill="none" xmlns="http://www.w3.org/2000/svg">
<path d="M20.5204 9.0789C18.1054 5.37285 9.96857 6.18838 8.80634 10.2597C8.10508 12.7163 11.062 14.4356 11.444 16.7361H18.2226C18.4219 16.121 18.8275 15.3894 19.1083 14.9397C19.692 14.0055 20.5175 13.3948 20.831 12.3526C21.1292 11.3609 21.0947 9.96041 20.5204 9.0789Z" stroke="#C7FFB4" stroke-width="2.59791" stroke-miterlimit="1.5" stroke-linecap="round" stroke-linejoin="round"/>
<path fill-rule="evenodd" clip-rule="evenodd" d="M11.3179 19.8715C11.316 19.1616 11.2706 18.4518 11.2866 17.7421C11.293 17.4611 11.2304 17.1173 11.5476 16.9209C12.0109 16.6341 12.6999 16.5923 13.2748 16.5817C14.3523 16.562 15.4381 16.5689 16.5167 16.5706C17.0079 16.5713 17.741 16.5059 18.1837 16.693C18.6051 16.8708 18.7118 17.3554 18.7592 17.6828C18.8501 18.31 19.0919 19.7107 18.3973 20.1962C17.9599 20.5021 17.2775 20.5661 16.7173 20.619C15.2311 20.7592 11.3202 20.7313 11.3179 19.8715Z" stroke="#C7FFB4" stroke-width="2.59791" stroke-miterlimit="1.5" stroke-linecap="round" stroke-linejoin="round"/>
<path d="M15.2803 20.6792C15.2918 21.0655 15.2974 21.4539 15.2598 21.8396" stroke="#C7FFB4" stroke-width="2.59791" stroke-miterlimit="1.5" stroke-linecap="round" stroke-linejoin="round"/>
<path d="M3.52734 14.7811C4.05607 14.5672 4.60824 14.3912 5.14263 14.1865" stroke="#C7FFB4" stroke-width="2.59791" stroke-miterlimit="1.5" stroke-linecap="round" stroke-linejoin="round"/>
<path d="M3.52734 6.46631C4.11754 6.75363 4.68212 7.07118 5.27367 7.35602" stroke="#C7FFB4" stroke-width="2.59791" stroke-miterlimit="1.5" stroke-linecap="round" stroke-linejoin="round"/>
<path d="M15.1744 3.06083C15.1551 2.49176 15.1593 1.92677 15.1815 1.35791" stroke="#C7FFB4" stroke-width="2.59791" stroke-miterlimit="1.5" stroke-linecap="round" stroke-linejoin="round"/>
<path d="M24.3145 6.93733C25.0554 6.56133 25.8184 6.20808 26.572 5.84717" stroke="#C7FFB4" stroke-width="2.59791" stroke-miterlimit="1.5" stroke-linecap="round" stroke-linejoin="round"/>
<path d="M23.0215 14.6914C23.5928 15.0839 24.1666 15.4719 24.7195 15.8798" stroke="#C7FFB4" stroke-width="2.59791" stroke-miterlimit="1.5" stroke-linecap="round" stroke-linejoin="round"/>
</svg>
