<svg width="21" height="21" viewBox="0 0 21 21" fill="none" xmlns="http://www.w3.org/2000/svg">
<path fill-rule="evenodd" clip-rule="evenodd" d="M17.3832 4.51781C17.5891 4.43114 17.8145 4.40124 18.036 4.43124C18.2574 4.46124 18.4667 4.55003 18.6421 4.68838C18.8176 4.82673 18.9527 5.00957 19.0335 5.21788C19.1143 5.42619 19.1378 5.65234 19.1015 5.87281L17.2115 17.337C17.0282 18.4428 15.8149 19.077 14.8007 18.5261C13.9524 18.0653 12.6924 17.3553 11.559 16.6145C10.9924 16.2436 9.25655 15.0561 9.46988 14.2111C9.65321 13.4886 12.5699 10.7736 14.2365 9.15948C14.8907 8.52531 14.5924 8.15948 13.8199 8.74281C11.9015 10.1911 8.82155 12.3936 7.80321 13.0136C6.90488 13.5603 6.43655 13.6536 5.87655 13.5603C4.85488 13.3903 3.90738 13.127 3.13405 12.8061C2.08905 12.3728 2.13988 10.9361 3.13321 10.5178L17.3832 4.51781Z" fill="white"/>
</svg>
