<svg width="310" height="129" viewBox="0 0 310 129" fill="none" xmlns="http://www.w3.org/2000/svg">
<g opacity="0.2">
<path d="M277.526 103.568L275.995 103.08C296.361 91.9282 307.129 78.6064 307.129 64.5487C307.129 42.7713 280.857 22.736 236.848 10.9537L237.892 10.2778C282.46 22.2029 309.056 42.4934 309.056 64.5487C309.056 78.7791 298.144 92.2736 277.526 103.568Z" fill="white"/>
<path d="M154.537 128.988C69.3272 128.988 0 100.076 0 64.5414C0 29.0066 69.3272 0.0952148 154.537 0.0952148V0.898721C70.3896 0.898721 1.94477 29.4497 1.94477 64.5339C1.94477 99.6256 70.4076 128.169 154.537 128.169C179.963 128.169 205.136 125.511 227.321 120.479L228.239 121.185C205.767 126.299 180.269 128.988 154.537 128.988Z" fill="white"/>
<path d="M81.4117 114.148C39.7794 103.455 14.9297 84.9067 14.9297 64.541H18.8012C18.8012 84.3435 42.9666 102.374 83.4465 112.774L81.4117 114.148Z" fill="white"/>
<path d="M154.538 122.769C139.232 122.769 124.196 121.74 109.826 119.72L111.069 118.196C125.042 120.163 139.664 121.162 154.556 121.162C224.477 121.162 282.55 99.3172 289.591 70.3457L293.444 70.5109C286.169 100.293 226.458 122.769 154.538 122.769Z" fill="white"/>
<path d="M288.543 55.4999C283.483 42.3658 267.313 30.3282 242.985 21.6097C218.405 12.7936 186.983 7.94247 154.534 7.94247C128.334 7.94247 102.908 11.0589 80.9936 16.9613C55.4596 23.84 35.976 34.203 26.1261 46.1431L22.4707 45.6174C32.5907 33.3395 52.6325 22.6835 78.8868 15.6096C101.432 9.54198 127.578 6.33545 154.516 6.33545C187.902 6.33545 220.206 11.3292 245.488 20.3931C270.5 29.3594 287.138 41.7425 292.342 55.2521L288.543 55.4999Z" fill="white"/>
<path d="M154.537 106.594C98.931 106.594 53.6973 87.7301 53.6973 64.5409C53.6973 55.154 60.9541 46.2779 74.6575 38.8735L77.7187 39.8573C64.5375 46.9837 57.5688 55.5145 57.5688 64.5409C57.5688 86.8364 101.074 104.979 154.537 104.979C164.026 104.979 173.408 104.409 182.394 103.282L183.51 104.829C174.146 106.008 164.387 106.594 154.537 106.594Z" fill="white"/>
<path d="M222.638 95.5551L220.027 94.3686C240.033 86.724 251.504 75.8578 251.504 64.5485C251.504 56.5885 245.957 48.8838 235.477 42.2679L238.701 41.3818C249.613 48.2605 255.375 56.2731 255.375 64.556C255.357 76.3083 243.437 87.6101 222.638 95.5551Z" fill="white"/>
<path d="M214.858 32.8812C197.553 27.1364 176.683 24.1026 154.534 24.1026C135.105 24.1026 116.359 26.4906 100.315 31.0113L98.1543 29.6746C114.829 24.9737 134.33 22.4956 154.534 22.4956C177.583 22.4956 199.282 25.6496 217.271 31.6271L214.858 32.8812Z" fill="white"/>
<path d="M154.536 99.3701C140.959 99.3701 127.471 97.9809 115.551 95.3526L116.451 94.6392C128.102 97.2074 141.265 98.5666 154.518 98.5666C191.126 98.5666 223.467 88.3012 233.173 73.5977L235.028 73.8154C225.124 88.8644 192.009 99.3701 154.536 99.3701Z" fill="white"/>
<path d="M95.4931 89.1796C79.7189 82.6013 71.0215 73.8528 71.0215 64.5486C71.0215 45.3469 108.476 29.7197 154.538 29.7197C200.582 29.7197 238.055 45.3469 238.055 64.5486H236.128C236.128 45.79 199.538 30.5307 154.556 30.5307C109.575 30.5307 72.9842 45.79 72.9842 64.5486C72.9842 73.635 81.4656 82.1808 96.8976 88.6089L95.4931 89.1796Z" fill="white"/>
<path d="M154.536 86.2061C125.887 86.2061 102.586 76.4888 102.586 64.5413C102.586 52.5937 125.887 42.8765 154.536 42.8765V44.491C128.03 44.491 106.457 53.4873 106.457 64.5413C106.457 75.5952 128.03 84.5915 154.536 84.5915C181.043 84.5915 202.615 75.5952 202.615 64.5413H206.487C206.469 76.4888 183.168 86.2061 154.536 86.2061Z" fill="white"/>
<path d="M154.539 75.3096C140.295 75.3096 128.717 70.481 128.717 64.541H130.644C130.644 70.0304 141.358 74.4986 154.521 74.4986C167.684 74.4986 178.398 70.0304 178.398 64.541C178.398 59.0516 167.684 54.5835 154.521 54.5835C147.21 54.5835 140.403 55.9502 135.83 58.3382L134.317 57.8351C139.251 55.2518 146.616 53.7725 154.521 53.7725C168.764 53.7725 180.343 58.601 180.343 64.541C180.343 70.481 168.764 75.3096 154.539 75.3096Z" fill="white"/>
</g>
</svg>
