<svg width="20" height="21" viewBox="0 0 20 21" fill="none" xmlns="http://www.w3.org/2000/svg">
<rect y="0.401367" width="20" height="20" rx="4" fill="#F5F4F3"/>
<path fill-rule="evenodd" clip-rule="evenodd" d="M13.5623 6.0593C13.6871 6.00679 13.8236 5.98868 13.9577 6.00686C14.0919 6.02503 14.2187 6.07882 14.325 6.16263C14.4312 6.24644 14.5131 6.35721 14.5621 6.4834C14.611 6.60959 14.6252 6.7466 14.6033 6.88016L13.4583 13.8251C13.3472 14.495 12.6122 14.8792 11.9978 14.5455C11.4839 14.2664 10.7206 13.8362 10.034 13.3874C9.69075 13.1628 8.63918 12.4434 8.76842 11.9315C8.87948 11.4938 10.6464 9.84908 11.6561 8.87122C12.0524 8.48704 11.8716 8.26542 11.4036 8.6188C10.2415 9.4962 8.37566 10.8305 7.75875 11.2061C7.21454 11.5372 6.93083 11.5938 6.59158 11.5372C5.97266 11.4343 5.39866 11.2747 4.93018 11.0804C4.29712 10.8179 4.32791 9.94752 4.92967 9.69409L13.5623 6.0593Z" fill="#4E4F51"/>
</svg>
