<svg width="20" height="21" viewBox="0 0 20 21" fill="none" xmlns="http://www.w3.org/2000/svg">
<rect y="0.401367" width="20" height="20" rx="4" fill="#F5F4F3"/>
<path d="M12.3469 7.41C11.9983 7.01976 11.8061 6.5187 11.8061 6H10.2296V12.2C10.2177 12.5356 10.0732 12.8535 9.82669 13.0867C9.58015 13.32 9.25082 13.4502 8.90816 13.45C8.18367 13.45 7.58163 12.87 7.58163 12.15C7.58163 11.29 8.42857 10.645 9.30102 10.91V9.33C7.54082 9.1 6 10.44 6 12.15C6 13.815 7.40816 15 8.90306 15C10.5051 15 11.8061 13.725 11.8061 12.15V9.005C12.4454 9.45493 13.2129 9.69632 14 9.695V8.15C14 8.15 13.0408 8.195 12.3469 7.41Z" fill="#4E4F51"/>
</svg>
