<svg width="20" height="21" viewBox="0 0 20 21" fill="none" xmlns="http://www.w3.org/2000/svg">
<rect y="0.401367" width="20" height="20" rx="4" fill="#F5F4F3"/>
<path d="M15 7.27637C14.625 7.46387 14.25 7.52637 13.8125 7.58887C14.25 7.33887 14.5625 6.96387 14.6875 6.46387C14.3125 6.71387 13.875 6.83887 13.375 6.96387C13 6.58887 12.4375 6.33887 11.875 6.33887C10.5625 6.33887 9.5625 7.58887 9.875 8.83887C8.1875 8.77637 6.6875 7.96387 5.625 6.71387C5.0625 7.65137 5.375 8.83887 6.25 9.46387C5.9375 9.46387 5.625 9.33887 5.3125 9.21387C5.3125 10.1514 6 11.0264 6.9375 11.2764C6.625 11.3389 6.3125 11.4014 6 11.3389C6.25 12.1514 7 12.7764 7.9375 12.7764C7.1875 13.3389 6.0625 13.6514 5 13.5264C5.9375 14.0889 7 14.4639 8.125 14.4639C11.9375 14.4639 14.0625 11.2764 13.9375 8.33887C14.375 8.08887 14.75 7.71387 15 7.27637Z" fill="black"/>
</svg>
