<svg width="78" height="52" viewBox="0 0 78 52" fill="none" xmlns="http://www.w3.org/2000/svg">
<path fill-rule="evenodd" clip-rule="evenodd" d="M40.485 51.8011C50.982 51.875 61.3852 49.3673 68.5217 44.4058C75.4294 39.6032 76.4417 32.8712 77.1113 26.337C77.8496 19.1318 80.1035 11.0087 72.4865 5.71304C64.743 0.329487 51.8731 0.724895 40.485 0.87318C29.4115 1.01737 17.6681 1.53816 9.75106 6.52994C1.77181 11.5609 -0.533801 19.1545 0.0990363 26.337C0.694989 33.1009 5.5397 39.2777 13.0538 44.0155C20.4781 48.6967 30.0991 51.7281 40.485 51.8011Z" fill="#7A8FFF"/>
<path d="M57.0522 26.2938C49.0261 32.2494 35.4605 34.5973 25.8399 28.8939C23.9323 27.7629 22.2905 26.4042 21 24.9267C23.7651 22.1736 26.7037 19.6803 31.2136 18.1908C41.0877 14.9287 52.8827 18.7413 57.6847 25.1032" stroke="white" stroke-width="2.07833" stroke-miterlimit="1.5" stroke-linecap="round" stroke-linejoin="round"/>
<path fill-rule="evenodd" clip-rule="evenodd" d="M42.2757 21.5756C40.959 21.0996 39.5517 20.9354 38.1334 21.3145C34.9283 22.1716 33.8653 25.2727 36.1657 27.048C39.6096 29.7056 46.1501 26.6063 44.3871 23.358" fill="white"/>
<path d="M42.2757 21.5756C40.959 21.0996 39.5517 20.9354 38.1334 21.3145C34.9283 22.1716 33.8653 25.2727 36.1657 27.048C39.6096 29.7056 46.1501 26.6063 44.3871 23.358" stroke="white" stroke-width="2.07833" stroke-miterlimit="1.5" stroke-linecap="round" stroke-linejoin="round"/>
<path d="M21.9277 30.2631C22.6828 29.4149 23.4246 28.5367 24.2495 27.7368" stroke="white" stroke-width="2.07833" stroke-miterlimit="1.5" stroke-linecap="round" stroke-linejoin="round"/>
<path d="M26.5723 32.4742C27.2945 31.7121 28.0967 30.9893 28.8941 30.2637" stroke="white" stroke-width="2.07833" stroke-miterlimit="1.5" stroke-linecap="round" stroke-linejoin="round"/>
<path d="M32.1445 34.3686C32.8719 33.5079 33.6487 32.6578 34.4663 31.8423" stroke="white" stroke-width="2.07833" stroke-miterlimit="1.5" stroke-linecap="round" stroke-linejoin="round"/>
<path d="M39.5762 35.0002C40.4798 33.9398 41.3015 32.8344 42.3624 31.8423" stroke="white" stroke-width="2.07833" stroke-miterlimit="1.5" stroke-linecap="round" stroke-linejoin="round"/>
<path d="M47.0039 34.0525C48.0081 32.6732 48.9923 31.2284 50.2544 29.9473" stroke="white" stroke-width="2.07833" stroke-miterlimit="1.5" stroke-linecap="round" stroke-linejoin="round"/>
<path d="M57.2212 26.1577C56.1297 27.6289 55.0609 29.1073 53.9707 30.5787" stroke="white" stroke-width="2.07833" stroke-miterlimit="1.5" stroke-linecap="round" stroke-linejoin="round"/>
</svg>
